<?xml version="1.0" encoding="UTF-8" standalone="no"?>
<svg
   xmlns:dc="http://purl.org/dc/elements/1.1/"
   xmlns:cc="http://creativecommons.org/ns#"
   xmlns:rdf="http://www.w3.org/1999/02/22-rdf-syntax-ns#"
   xmlns:svg="http://www.w3.org/2000/svg"
   xmlns="http://www.w3.org/2000/svg"
   xmlns:sodipodi="http://sodipodi.sourceforge.net/DTD/sodipodi-0.dtd"
   xmlns:inkscape="http://www.inkscape.org/namespaces/inkscape"
   width="1080"
   height="1080"
   viewBox="0 0 285.75001 285.75001"
   version="1.1"
   id="svg3993"
   inkscape:version="1.0.1 (3bc2e813f5, 2020-09-07)"
   sodipodi:docname="Discord.svg">
  <defs
     id="defs3987" />
  <sodipodi:namedview
     id="base"
     pagecolor="#bababa"
     bordercolor="#666666"
     borderopacity="1.0"
     inkscape:pageopacity="0"
     inkscape:pageshadow="2"
     inkscape:zoom="0.021875"
     inkscape:cx="974.90509"
     inkscape:cy="-642.80979"
     inkscape:document-units="mm"
     inkscape:current-layer="layer1"
     inkscape:document-rotation="0"
     showgrid="false"
     units="px"
     inkscape:pagecheckerboard="false"
     showborder="true"
     inkscape:showpageshadow="false"
     borderlayer="true"
     inkscape:window-width="960"
     inkscape:window-height="1017"
     inkscape:window-x="952"
     inkscape:window-y="-8"
     inkscape:window-maximized="0" />
  <metadata
     id="metadata3990">
    <rdf:RDF>
      <cc:Work
         rdf:about="">
        <dc:format>image/svg+xml</dc:format>
        <dc:type
           rdf:resource="http://purl.org/dc/dcmitype/StillImage" />
        <dc:title></dc:title>
      </cc:Work>
    </rdf:RDF>
  </metadata>
  <g
     inkscape:label="Layer 1"
     inkscape:groupmode="layer"
     id="layer1">
    <g
       id="g4982"
       transform="matrix(0.07478503,0,0,0.07478503,-259.95384,62.676022)"
       style="fill:#000000" />
    <path
       id="circle4974"
       style="fill:#ffffff;fill-opacity:1;stroke-width:3.35883"
       d="M 142.8403,2.5505684e-5 A 142.87496,142.87496 0 0 0 0,142.87503 142.87496,142.87496 0 0 0 142.875,285.74998 142.87496,142.87496 0 0 0 285.75,142.87503 142.87496,142.87496 0 0 0 142.875,2.5505684e-5 a 142.87496,142.87496 0 0 0 -0.034,0 z M 100.9262,89.123826 h 83.90192 c 7.075,0 12.832,5.7594 12.832,12.897004 v 112.3263 l -13.4593,-11.8976 -7.5756,-7.0131 -8.0168,-7.4501 3.3183,11.5861 H 100.9262 c -7.075,0 -12.8321,-5.7636 -12.8321,-12.9013 v -84.6503 c 0,-7.137604 5.7571,-12.897004 12.8321,-12.897004 z m 32.3701,29.177204 c 0,0 -8.5751,-0.1858 -17.5911,6.5762 0,0 -9.0162,16.3411 -9.0162,36.5018 0,0 5.2597,9.0755 19.0967,9.5137 0,0 2.3139,-2.8168 4.1923,-5.196 -7.9516,-2.3792 -10.9544,-7.3851 -10.9544,-7.3851 0,0 0.6254,0.4382 1.7522,1.0643 0.059,0.063 0.1255,0.1234 0.2511,0.186 0.1876,0.1252 0.3743,0.1863 0.5626,0.3115 1.5653,0.8766 3.133,1.5694 4.573,2.1329 2.567,1.0018 5.6334,2.0023 9.2023,2.6911 4.6958,0.8765 10.2047,1.1875 16.2153,0.06 2.9427,-0.5009 5.9506,-1.3762 9.0811,-2.691 2.1914,-0.8139 4.632,-2.0042 7.19912,-3.6947 0,0 -3.13312,5.1334 -11.33512,7.45 1.8782,2.3792 4.136,5.0706 4.136,5.0706 13.83702,-0.4383 19.15732,-9.5138 19.15732,-9.5138 0,-20.1607 -9.0163,-36.5018 -9.0163,-36.5018 -9.01592,-6.762 -17.59542,-6.5761 -17.59542,-6.5761 l -0.874,1.0037 c 10.644,3.2558 15.58802,7.9519 15.58802,7.9519 -6.51152,-3.5688 -12.89772,-5.325 -18.84582,-6.0137 -4.5079,-0.5009 -8.8268,-0.3754 -12.6461,0.1255 -0.3759,0 -0.689,0.063 -1.0642,0.1255 -2.1914,0.1879 -7.5129,1.003 -14.2122,3.9457 -2.3166,1.0644 -3.6948,1.8171 -3.6948,1.8171 0,0 5.1963,-4.9471 16.4663,-8.2029 z m -1.7522,23.3539 c 3.5688,0 6.4484,3.1333 6.3858,6.9526 0,3.8192 -2.817,6.9482 -6.3858,6.9482 -3.5062,0 -6.3857,-3.129 -6.3857,-6.9482 0,-3.8193 2.8169,-6.9526 6.3857,-6.9526 z m 22.8521,0 c 3.5688,0 6.3857,3.1333 6.3857,6.9526 0,3.8192 -2.8169,6.9482 -6.3857,6.9482 -3.5063,0 -6.3858,-3.129 -6.3858,-6.9482 0,-3.8193 2.8169,-6.9526 6.3858,-6.9526 z" />
  </g>
</svg>
