<?xml version="1.0" encoding="UTF-8" standalone="no"?>
<svg
   xmlns:dc="http://purl.org/dc/elements/1.1/"
   xmlns:cc="http://creativecommons.org/ns#"
   xmlns:rdf="http://www.w3.org/1999/02/22-rdf-syntax-ns#"
   xmlns:svg="http://www.w3.org/2000/svg"
   xmlns="http://www.w3.org/2000/svg"
   xmlns:sodipodi="http://sodipodi.sourceforge.net/DTD/sodipodi-0.dtd"
   xmlns:inkscape="http://www.inkscape.org/namespaces/inkscape"
   width="1080"
   height="1080"
   viewBox="0 0 285.75001 285.75001"
   version="1.1"
   id="svg3993"
   inkscape:version="1.0.1 (3bc2e813f5, 2020-09-07)"
   sodipodi:docname="GitHub.svg">
  <defs
     id="defs3987" />
  <sodipodi:namedview
     id="base"
     pagecolor="#bababa"
     bordercolor="#666666"
     borderopacity="1.0"
     inkscape:pageopacity="0"
     inkscape:pageshadow="2"
     inkscape:zoom="0.021875"
     inkscape:cx="974.90509"
     inkscape:cy="-642.80979"
     inkscape:document-units="mm"
     inkscape:current-layer="layer1"
     inkscape:document-rotation="0"
     showgrid="false"
     units="px"
     inkscape:pagecheckerboard="false"
     showborder="true"
     inkscape:showpageshadow="false"
     borderlayer="true"
     inkscape:window-width="960"
     inkscape:window-height="1017"
     inkscape:window-x="952"
     inkscape:window-y="-8"
     inkscape:window-maximized="0" />
  <metadata
     id="metadata3990">
    <rdf:RDF>
      <cc:Work
         rdf:about="">
        <dc:format>image/svg+xml</dc:format>
        <dc:type
           rdf:resource="http://purl.org/dc/dcmitype/StillImage" />
        <dc:title></dc:title>
      </cc:Work>
    </rdf:RDF>
  </metadata>
  <g
     inkscape:label="Layer 1"
     inkscape:groupmode="layer"
     id="layer1">
    <g
       id="g4982"
       transform="matrix(0.07478503,0,0,0.07478503,-259.95384,62.676022)"
       style="fill:#000000" />
    <path
       id="circle3943"
       style="fill:#ffffff;fill-opacity:1;stroke-width:3.35886"
       d="M 142.84176,2.077165e-5 A 142.87496,142.87496 0 0 0 5.5000001e-5,142.87506 142.87496,142.87496 0 0 0 142.87506,285.74998 142.87496,142.87496 0 0 0 285.74995,142.87506 142.87496,142.87496 0 0 0 142.87506,2.077165e-5 a 142.87496,142.87496 0 0 0 -0.042,0 z M 194.23918,86.194891 c 0,0 0.5601,1.54968 1.1762,3.35722 1.6702,4.92197 2.7799,9.73368 3.4445,14.900109 0.4848,3.79835 0.6623,10.21575 0.3366,12.26097 l -0.2679,1.66137 0.6823,0.81293 c 4.6783,5.56503 7.3718,10.66859 8.8959,16.85567 2.348,9.54012 1.1607,24.39443 -2.76,34.45111 -2.2728,5.83185 -5.1436,10.37439 -9.1861,14.54974 -4.6141,4.76784 -9.7953,8.05749 -16.7463,10.63853 -4.7425,1.75991 -9.0155,2.72052 -15.80042,3.54769 -1.8342,0.22605 -35.2314,0.46047 -38.2329,0.26791 v 0 c -10.4023,-0.65303 -18.2304,-2.57125 -25.4118,-6.22576 -8.176005,-4.15935 -14.378405,-10.36393 -18.427505,-18.43047 -3.8898,-7.75417 -5.8922,-17.15673 -5.8922,-27.66299 0,-11.37018 2.9172,-19.46409 10.0853,-27.99177 l 0.6849,-0.81293 -0.2704,-1.66136 c -0.5275,-3.26329 0,-11.56717 1.1253,-17.193069 0.9016,-4.57955 3.2584,-12.55266 3.8986,-13.1999 0.1993,-0.20177 4.6495,0.87471 7.3719,1.77388 7.019805,2.31816 15.178005,6.3886 23.116905,11.5341 1.1453,0.745119 2.1975,1.417649 2.3392,1.501369 0.1549,0.0846 0.7376,0.0846 1.3158,-0.0837 2.5895,-0.58605 7.1526,-1.096829 11.9549,-1.341209 7.6909,-0.39349 17.2182,0.17498 22.3616,1.341209 0.5785,0.13312 1.1696,0.16577 1.3114,0.0837 0.1331,-0.0845 1.2006,-0.76186 2.3458,-1.501369 7.93682,-5.14458 16.08622,-9.21243 23.11032,-11.5341 2.0489,-0.67814 7.3343,-2.02572 7.4429,-1.89922 z m -76.40612,54.988419 c -3.0879,0.0251 -5.4624,0.17498 -6.9466,0.48474 -4.9883,1.0307 -8.5569,3.093 -11.452105,6.61523 -2.7002,3.28514 -4.1467,6.29132 -4.9973,10.39617 -0.4186,2.00094 -0.4588,2.73417 -0.35,5.92721 0.4521,13.44554 6.104905,21.16547 18.438605,25.18836 5.1502,1.67861 12.3537,2.72127 21.6882,3.13234 3.3271,0.14149 19.9472,-0.0845 22.6784,-0.29386 v 0 c 6.7207,-0.55256 12.24742,-1.51167 16.31882,-2.82944 8.5061,-2.75267 13.7314,-7.27353 16.4849,-14.26844 1.8008,-4.57553 2.5407,-12.34218 1.6036,-16.85148 -0.8506,-4.10485 -2.2948,-7.11103 -4.995,-10.39617 -2.9373,-3.57322 -6.4925,-5.61401 -11.5341,-6.62385 -3.0702,-0.61117 -9.30132,-0.63461 -18.09742,-0.0837 -10.2096,0.6614 -17.4065,0.6614 -27.607,0 -4.3417,-0.28047 -8.1428,-0.4161 -11.233,-0.4027 z m 48.15,11.21822 c 5.70842,0 10.18292,7.23971 9.30582,15.05173 -0.5517,4.92448 -3.2164,9.11984 -6.7186,10.58672 -0.9879,0.41023 -3.18092,0.60195 -4.14442,0.35079 -2.1354,-0.55256 -3.9938,-1.97875 -5.3961,-4.14043 -1.8229,-2.81119 -2.4143,-4.9162 -2.4321,-8.70031 0,-3.17228 0.2855,-4.69559 1.4022,-7.03476 1.8783,-3.95248 4.7004,-6.11332 7.9832,-6.11332 z m -45.6645,0.0502 c 2.8198,0.23945 5.5997,2.24055 7.4095,6.08712 1.1031,2.34428 1.4509,4.07605 1.4199,7.13866 0,3.69796 -0.638,5.82289 -2.4411,8.59641 -1.679,2.59033 -3.9185,4.05252 -6.4637,4.2182 -0.7535,0.0846 -1.5616,0 -1.8031,0 v -0.0251 c -6.3374,-1.60092 -9.8594,-10.56386 -7.2302,-18.39589 1.7898,-5.32911 5.4803,-7.931 9.1087,-7.62307 z" />
  </g>
</svg>
