<?xml version="1.0" encoding="UTF-8" standalone="no"?>
<svg
   xmlns:dc="http://purl.org/dc/elements/1.1/"
   xmlns:cc="http://creativecommons.org/ns#"
   xmlns:rdf="http://www.w3.org/1999/02/22-rdf-syntax-ns#"
   xmlns:svg="http://www.w3.org/2000/svg"
   xmlns="http://www.w3.org/2000/svg"
   xmlns:sodipodi="http://sodipodi.sourceforge.net/DTD/sodipodi-0.dtd"
   xmlns:inkscape="http://www.inkscape.org/namespaces/inkscape"
   width="1080"
   height="1080"
   viewBox="0 0 285.75001 285.75001"
   version="1.1"
   id="svg3993"
   inkscape:version="1.0.1 (3bc2e813f5, 2020-09-07)"
   sodipodi:docname="Instagram.svg">
  <defs
     id="defs3987" />
  <sodipodi:namedview
     id="base"
     pagecolor="#bababa"
     bordercolor="#666666"
     borderopacity="1.0"
     inkscape:pageopacity="0"
     inkscape:pageshadow="2"
     inkscape:zoom="0.021875"
     inkscape:cx="974.90509"
     inkscape:cy="-642.80979"
     inkscape:document-units="mm"
     inkscape:current-layer="layer1"
     inkscape:document-rotation="0"
     showgrid="false"
     units="px"
     inkscape:pagecheckerboard="false"
     showborder="true"
     inkscape:showpageshadow="false"
     borderlayer="true"
     inkscape:window-width="960"
     inkscape:window-height="1017"
     inkscape:window-x="952"
     inkscape:window-y="-8"
     inkscape:window-maximized="0" />
  <metadata
     id="metadata3990">
    <rdf:RDF>
      <cc:Work
         rdf:about="">
        <dc:format>image/svg+xml</dc:format>
        <dc:type
           rdf:resource="http://purl.org/dc/dcmitype/StillImage" />
        <dc:title></dc:title>
      </cc:Work>
    </rdf:RDF>
  </metadata>
  <g
     inkscape:label="Layer 1"
     inkscape:groupmode="layer"
     id="layer1">
    <g
       id="g4982"
       transform="matrix(0.07478503,0,0,0.07478503,-259.95384,62.676022)"
       style="fill:#000000" />
    <path
       id="circle3915"
       style="fill:#ffffff;fill-opacity:1;stroke-width:3.35886"
       d="M 142.84175,5.5771652e-5 A 142.87496,142.87496 0 0 0 5.645e-5,142.87496 142.87496,142.87496 0 0 0 142.87505,285.74995 142.87496,142.87496 0 0 0 285.74994,142.87496 142.87496,142.87496 0 0 0 142.87505,5.5771652e-5 a 142.87496,142.87496 0 0 0 -0.042,0 z M 101.46785,87.670056 h 82.81212 c 7.7861,0 13.8046,6.0054 13.8046,13.805504 v 82.8116 c 0,7.7943 -6.0119,13.7927 -13.8046,13.7927 h -82.81212 c -7.797191,0 -13.806892,-5.9984 -13.806892,-13.7927 v -82.8116 c 0,-7.793404 6.009701,-13.805504 13.806892,-13.805504 z m 65.55642,13.792704 c -1.90732,0 -3.44242,1.5487 -3.44242,3.4567 v 13.8054 c 0,1.9081 1.5351,3.4483 3.44242,3.4483 h 13.8068 c 1.9005,0 3.4489,-1.5402 3.4489,-3.4483 v -13.8054 c 0,-1.908 -1.5484,-3.4567 -3.4489,-3.4567 z m -24.07622,19.7196 c -12.2362,0 -22.1644,9.6167 -22.1644,21.4848 0,11.8542 9.9282,21.4851 22.1644,21.4851 12.2474,0 22.1822,-9.6243 22.1822,-21.4851 0,-11.8615 -9.9348,-21.4848 -22.1822,-21.4848 z m -41.4802,11.3352 v 48.3129 c 0,2.4203 1.0433,3.4567 3.4556,3.4567 h 75.90762 c 2.4121,0 3.4489,-1.0364 3.4489,-3.4567 v -48.3129 l -8.4418,1.8819 c 0.9259,3.0015 1.4288,6.1762 1.4288,9.4705 0,18.3567 -15.36642,33.2484 -34.31892,33.2484 -18.9369,0 -34.2988,-14.8983 -34.2988,-33.2484 0,-3.2943 0.4898,-6.469 1.4154,-9.4705 z" />
  </g>
</svg>
