<?xml version="1.0" encoding="UTF-8" standalone="no"?>
<svg
   xmlns:dc="http://purl.org/dc/elements/1.1/"
   xmlns:cc="http://creativecommons.org/ns#"
   xmlns:rdf="http://www.w3.org/1999/02/22-rdf-syntax-ns#"
   xmlns:svg="http://www.w3.org/2000/svg"
   xmlns="http://www.w3.org/2000/svg"
   xmlns:sodipodi="http://sodipodi.sourceforge.net/DTD/sodipodi-0.dtd"
   xmlns:inkscape="http://www.inkscape.org/namespaces/inkscape"
   width="1080"
   height="1080"
   viewBox="0 0 285.75001 285.75001"
   version="1.1"
   id="svg3993"
   inkscape:version="1.0.1 (3bc2e813f5, 2020-09-07)"
   sodipodi:docname="LinkedIn.svg">
  <defs
     id="defs3987" />
  <sodipodi:namedview
     id="base"
     pagecolor="#bababa"
     bordercolor="#666666"
     borderopacity="1.0"
     inkscape:pageopacity="0"
     inkscape:pageshadow="2"
     inkscape:zoom="0.021875"
     inkscape:cx="974.90509"
     inkscape:cy="-642.80979"
     inkscape:document-units="mm"
     inkscape:current-layer="layer1"
     inkscape:document-rotation="0"
     showgrid="false"
     units="px"
     inkscape:pagecheckerboard="false"
     showborder="true"
     inkscape:showpageshadow="false"
     borderlayer="true"
     inkscape:window-width="960"
     inkscape:window-height="1017"
     inkscape:window-x="952"
     inkscape:window-y="-8"
     inkscape:window-maximized="0" />
  <metadata
     id="metadata3990">
    <rdf:RDF>
      <cc:Work
         rdf:about="">
        <dc:format>image/svg+xml</dc:format>
        <dc:type
           rdf:resource="http://purl.org/dc/dcmitype/StillImage" />
        <dc:title></dc:title>
      </cc:Work>
    </rdf:RDF>
  </metadata>
  <g
     inkscape:label="Layer 1"
     inkscape:groupmode="layer"
     id="layer1">
    <g
       id="g4982"
       transform="matrix(0.07478503,0,0,0.07478503,-259.95384,62.676022)"
       style="fill:#000000" />
    <path
       id="circle3939"
       style="fill:#ffffff;fill-opacity:1;stroke-width:3.35886"
       d="M 142.84176,5.577165e-5 A 142.87496,142.87496 0 0 0 5.5e-5,142.87506 142.87496,142.87496 0 0 0 142.87506,285.74995 142.87496,142.87496 0 0 0 285.74995,142.87506 142.87496,142.87496 0 0 0 142.87506,5.577165e-5 a 142.87496,142.87496 0 0 0 -0.042,0 z M 93.278555,85.995956 h 99.190625 c 4.335,0 7.8217,3.462 7.8217,7.7615 v 98.235304 c 0,4.2996 -3.4867,7.7616 -7.8217,7.7616 H 93.278555 c -4.335,0 -7.8238,-3.462 -7.8238,-7.7616 V 93.757456 c 0,-4.2995 3.4888,-7.7615 7.8238,-7.7615 z m 17.658905,15.479904 v 0.025 c -5.6065,0 -9.8905,4.236 -9.8905,9.782 0,4.3923 2.6936,8.106 6.8315,9.4187 1.6745,0.5224 4.3504,0.5224 6.0538,0 v 0 c 7.0862,-2.18971 9.2681,-11.1082 3.9917,-16.34091 -1.9848,-1.97 -4.1755,-2.86839 -6.9865,-2.86839 z m 51.4195,25.6685 c -4.2663,0.075 -7.6266,1.1962 -10.8762,3.5606 -1.38,1.0041 -3.3337,3.0469 -4.1799,4.3698 l -0.6622,1.034 v -3.777 -3.7726 h -8.2802 -8.2755 v 27.3038 27.3084 h 8.5879 8.5925 l 0.089,-15.8435 c 0.089,-17.6081 0.067,-17.3569 1.5528,-20.3513 0.9703,-1.9579 2.5541,-3.4357 4.4436,-4.1447 1.1762,-0.4337 1.7344,-0.5107 4.058,-0.5107 2.6161,2e-4 2.729,0.025 4.1445,0.7099 2.3902,1.1676 3.686,3.2124 4.3572,6.8616 0.221,1.253 0.3014,5.0327 0.3014,17.4398 v 15.839 h 8.61462 8.6145 l -0.089,-18.7205 c -0.067,-18.0952 -0.1105,-18.7986 -0.5467,-21.1388 -1.0166,-5.307 -2.4565,-8.3918 -5.1944,-11.1361 -3.0303,-3.0362 -6.4859,-4.4317 -12.14112,-4.9149 -1.0898,-0.1172 -2.1265,-0.1172 -3.11,-0.1172 z m -60.0208,1.4148 v 27.3038 27.3084 h 8.6013 8.6013 v -27.3084 -27.3038 h -8.6013 z" />
  </g>
</svg>
