<?xml version="1.0" encoding="UTF-8" standalone="no"?>
<svg
   xmlns:dc="http://purl.org/dc/elements/1.1/"
   xmlns:cc="http://creativecommons.org/ns#"
   xmlns:rdf="http://www.w3.org/1999/02/22-rdf-syntax-ns#"
   xmlns:svg="http://www.w3.org/2000/svg"
   xmlns="http://www.w3.org/2000/svg"
   xmlns:sodipodi="http://sodipodi.sourceforge.net/DTD/sodipodi-0.dtd"
   xmlns:inkscape="http://www.inkscape.org/namespaces/inkscape"
   width="1080"
   height="1080"
   viewBox="0 0 285.75001 285.75001"
   version="1.1"
   id="svg3993"
   inkscape:version="1.0.1 (3bc2e813f5, 2020-09-07)"
   sodipodi:docname="Location.svg">
  <defs
     id="defs3987" />
  <sodipodi:namedview
     id="base"
     pagecolor="#bababa"
     bordercolor="#666666"
     borderopacity="1.0"
     inkscape:pageopacity="0"
     inkscape:pageshadow="2"
     inkscape:zoom="0.175"
     inkscape:cx="470.19873"
     inkscape:cy="103.57847"
     inkscape:document-units="mm"
     inkscape:current-layer="layer1"
     inkscape:document-rotation="0"
     showgrid="false"
     units="px"
     inkscape:pagecheckerboard="false"
     showborder="true"
     inkscape:showpageshadow="false"
     borderlayer="true"
     inkscape:window-width="960"
     inkscape:window-height="1017"
     inkscape:window-x="944"
     inkscape:window-y="0"
     inkscape:window-maximized="0" />
  <metadata
     id="metadata3990">
    <rdf:RDF>
      <cc:Work
         rdf:about="">
        <dc:format>image/svg+xml</dc:format>
        <dc:type
           rdf:resource="http://purl.org/dc/dcmitype/StillImage" />
        <dc:title />
      </cc:Work>
    </rdf:RDF>
  </metadata>
  <g
     inkscape:label="Layer 1"
     inkscape:groupmode="layer"
     id="layer1">
    <g
       id="g4982"
       transform="matrix(0.07478503,0,0,0.07478503,-259.95384,62.676022)"
       style="fill:#000000" />
    <path
       id="circle3919"
       style="fill:#ffffff;fill-opacity:1;stroke-width:3.35886"
       d="M 142.84176,7.7164964e-7 C 63.947031,0.01836399 -2.4018166e-5,63.980369 5.5000002e-5,142.8751 8.8137081e-5,221.78276 63.967404,285.75002 142.87506,285.75 221.78267,285.74996 285.74992,221.78271 285.74995,142.8751 285.75003,63.967411 221.78275,3.9431558e-5 142.87506,7.7164964e-7 h -0.042 z m 0,75.82861022835035 h 0.025 c 27.98142,0 50.75732,22.7736 50.75732,50.757099 0,34.7359 -45.44103,85.7152 -47.37253,87.865 -1.8054,2.0198 -4.9774,2.0198 -6.7805,0 -1.94709,-2.1642 -47.348105,-53.1291 -47.348105,-87.865 0,-27.983499 22.742605,-50.757099 50.721705,-50.757099 z m 0,25.222799 c -14.0792,0 -25.5247,11.4493 -25.5247,25.5343 0,14.0786 11.4455,25.5259 25.5247,25.5259 14.0859,0 25.56242,-11.4473 25.56242,-25.5259 0,-14.085 -11.47652,-25.5343 -25.56242,-25.5343 z"
       sodipodi:nodetypes="ccssscccssccsccsssss" />
  </g>
</svg>
