<?xml version="1.0" encoding="UTF-8" standalone="no"?>
<svg
   xmlns:dc="http://purl.org/dc/elements/1.1/"
   xmlns:cc="http://creativecommons.org/ns#"
   xmlns:rdf="http://www.w3.org/1999/02/22-rdf-syntax-ns#"
   xmlns:svg="http://www.w3.org/2000/svg"
   xmlns="http://www.w3.org/2000/svg"
   xmlns:sodipodi="http://sodipodi.sourceforge.net/DTD/sodipodi-0.dtd"
   xmlns:inkscape="http://www.inkscape.org/namespaces/inkscape"
   width="1080"
   height="1080"
   viewBox="0 0 285.75001 285.75001"
   version="1.1"
   id="svg3993"
   inkscape:version="1.0.1 (3bc2e813f5, 2020-09-07)"
   sodipodi:docname="Facebook.svg">
  <defs
     id="defs3987" />
  <sodipodi:namedview
     id="base"
     pagecolor="#bababa"
     bordercolor="#666666"
     borderopacity="1.0"
     inkscape:pageopacity="0"
     inkscape:pageshadow="2"
     inkscape:zoom="0.021875"
     inkscape:cx="974.90509"
     inkscape:cy="-642.80979"
     inkscape:document-units="mm"
     inkscape:current-layer="layer1"
     inkscape:document-rotation="0"
     showgrid="false"
     units="px"
     inkscape:pagecheckerboard="false"
     showborder="true"
     inkscape:showpageshadow="false"
     borderlayer="true"
     inkscape:window-width="960"
     inkscape:window-height="1017"
     inkscape:window-x="952"
     inkscape:window-y="-8"
     inkscape:window-maximized="0" />
  <metadata
     id="metadata3990">
    <rdf:RDF>
      <cc:Work
         rdf:about="">
        <dc:format>image/svg+xml</dc:format>
        <dc:type
           rdf:resource="http://purl.org/dc/dcmitype/StillImage" />
        <dc:title></dc:title>
      </cc:Work>
    </rdf:RDF>
  </metadata>
  <g
     inkscape:label="Layer 1"
     inkscape:groupmode="layer"
     id="layer1">
    <g
       id="g4982"
       transform="matrix(0.07478503,0,0,0.07478503,-259.95384,62.676022)"
       style="fill:#000000" />
    <path
       id="circle3949"
       style="fill:#ffffff;fill-opacity:1;stroke-width:3.35886"
       d="M 142.84128,4.8086615e-5 A 142.87496,142.87496 0 0 0 2.8e-4,142.87475 142.87496,142.87496 0 0 0 142.87498,285.74996 142.87496,142.87496 0 0 0 285.74972,142.87475 142.87496,142.87496 0 0 0 142.87498,4.8086615e-5 a 142.87496,142.87496 0 0 0 -0.084,0 z M 143.74128,74.90705 c 39.12542,0 70.84812,31.7193 70.84812,70.8447 0,35.3553 -25.9125,64.6566 -59.78172,69.9839 v -49.5025 h 16.50482 l 3.1455,-20.4814 h -19.65032 v -13.2818 c 0,-5.604 2.7361,-11.0714 11.5559,-11.0714 h 8.92482 v -17.4352 c 0,0 -8.0934,-1.3844 -15.84262,-1.3844 -16.19,0 -26.7755,9.8254 -26.7755,27.5718 v 15.601 h -17.9893 v 20.4814 h 17.9893 v 49.5025 c -33.8694,-5.3273 -59.7795,-34.6286 -59.7795,-69.9839 0,-39.1254 31.7245,-70.8447 70.8505,-70.8447 z" />
  </g>
</svg>
