<?xml version="1.0" encoding="UTF-8" standalone="no"?>
<svg
   xmlns:dc="http://purl.org/dc/elements/1.1/"
   xmlns:cc="http://creativecommons.org/ns#"
   xmlns:rdf="http://www.w3.org/1999/02/22-rdf-syntax-ns#"
   xmlns:svg="http://www.w3.org/2000/svg"
   xmlns="http://www.w3.org/2000/svg"
   xmlns:sodipodi="http://sodipodi.sourceforge.net/DTD/sodipodi-0.dtd"
   xmlns:inkscape="http://www.inkscape.org/namespaces/inkscape"
   width="1080"
   height="1080"
   viewBox="0 0 285.75001 285.75001"
   version="1.1"
   id="svg3993"
   inkscape:version="1.0.1 (3bc2e813f5, 2020-09-07)"
   sodipodi:docname="Resume.svg">
  <defs
     id="defs3987" />
  <sodipodi:namedview
     id="base"
     pagecolor="#bababa"
     bordercolor="#666666"
     borderopacity="1.0"
     inkscape:pageopacity="0"
     inkscape:pageshadow="2"
     inkscape:zoom="0.021875"
     inkscape:cx="974.90509"
     inkscape:cy="-642.80979"
     inkscape:document-units="mm"
     inkscape:current-layer="layer1"
     inkscape:document-rotation="0"
     showgrid="false"
     units="px"
     inkscape:pagecheckerboard="false"
     showborder="true"
     inkscape:showpageshadow="false"
     borderlayer="true"
     inkscape:window-width="960"
     inkscape:window-height="1017"
     inkscape:window-x="952"
     inkscape:window-y="-8"
     inkscape:window-maximized="0" />
  <metadata
     id="metadata3990">
    <rdf:RDF>
      <cc:Work
         rdf:about="">
        <dc:format>image/svg+xml</dc:format>
        <dc:type
           rdf:resource="http://purl.org/dc/dcmitype/StillImage" />
        <dc:title />
      </cc:Work>
    </rdf:RDF>
  </metadata>
  <g
     inkscape:label="Layer 1"
     inkscape:groupmode="layer"
     id="layer1">
    <path
       id="circle3911"
       style="fill:#ffffff;fill-opacity:1;stroke-width:3.35885"
       d="M 142.84175,4.1771652e-5 A 142.87496,142.87496 0 0 0 5.5e-5,142.87496 142.87496,142.87496 0 0 0 142.87505,285.74996 142.87496,142.87496 0 0 0 285.74995,142.87496 142.87496,142.87496 0 0 0 142.87505,4.1771652e-5 a 142.87496,142.87496 0 0 0 -0.042,0 z M 101.39036,79.834992 h 82.97602 c 6.5168,0 11.7666,5.25032 11.7666,11.76777 V 199.45567 c 0,6.51845 -5.2498,11.76333 -11.7666,11.76333 h -82.97602 c -6.519205,0 -11.769005,-5.24488 -11.769005,-11.76333 V 91.602762 c 0,-6.51745 5.2498,-11.76777 11.769005,-11.76777 z m 41.52009,20.628308 c -3.9075,0.0846 -7.87259,1.5342 -11.0534,4.70715 -4.6074,4.60709 -6.1049,11.10561 -3.9606,17.03726 0.5115,1.39664 1.3512,3.21088 1.8607,4.00204 0.5115,0.78698 0.9347,1.53737 0.9347,1.63106 0,0 -0.9325,0.684 -2.0932,1.39303 -2.698,1.58166 -7.1859,5.82775 -8.9868,8.5404 -0.7862,1.16356 -1.9095,3.16651 -2.5142,4.46921 -1.1141,2.37324 -2.4167,7.25318 -2.1841,8.01672 0,0.46884 0,0.83755 0.4672,1.30229 0,0.65302 0.5651,1.02273 1.493,1.48831 1.256,0.56093 2.3724,0.6053 26.8449,0.6053 21.6639,0 25.66222,0 26.36432,-0.47135 1.0234,-0.56093 2.1421,-2.27872 2.1421,-3.3486 0,-1.67526 -1.3468,-5.8583 -2.7911,-8.81282 -2.605,-5.25786 -6.58332,-9.39453 -11.39012,-11.90206 l -2.328,-1.21145 0.653,-0.8347 c 2.3723,-2.97712 3.6305,-7.51171 3.3049,-11.56893 -0.7954,-9.25446 -8.6544,-15.127 -16.682,-15.03415 z m 0.9946,8.20276 v 0.0753 c 4.0935,0 7.4672,3.02308 7.9124,7.35474 0.4697,3.58251 -1.9537,7.19433 -5.43809,8.44093 -6.1315,2.1868 -12.34931,-3.72115 -10.5219,-10.00284 0.6531,-2.27956 3.0259,-4.78399 5.13249,-5.40345 0.9768,-0.46884 1.95591,-0.46716 2.93281,-0.46716 z m -0.6221,24.75577 c 0.4672,0 0.9769,-0.002 1.5351,0.0837 3.9075,0 6.2555,0.84014 9.4918,2.7474 2.4655,1.49007 5.9564,5.0097 7.19911,7.35482 l 1.0212,1.95556 h -18.8795 -18.8772 l 0.8396,-1.4884 c 2.13979,-3.95574 5.24319,-6.87326 9.3367,-8.79558 2.8841,-1.34875 4.99499,-1.85861 8.3576,-1.81256 z m -0.4671,32.67287 c -33.2157,0 -34.1238,-10e-4 -35.0919,0.60112 -1.3024,0.78698 -1.7211,1.62879 -1.7211,3.44387 0,1.76811 0.46971,2.6517 1.7211,3.44387 0.97701,0.60279 1.8607,0.60112 35.0919,0.60112 33.21572,0 34.12832,0.001 35.09192,-0.60112 1.3025,-0.79535 1.7211,-1.67576 1.7211,-3.44387 0,-1.81508 -0.4697,-2.65263 -1.7211,-3.44387 -0.9769,-0.6028 -1.8629,-0.60112 -35.09192,-0.60112 z m -34.5203,16.49659 -0.9747,0.78782 c -2.1863,1.81415 -1.7211,5.80472 0.74431,6.85291 1.535,0.65303 67.99522,0.65303 69.48162,0 2.46759,-1.06987 2.84199,-5.03499 0.6974,-6.8401 l -0.9127,-0.80038 h -34.51602 z" />
    <g
       id="g4982"
       transform="matrix(0.07478503,0,0,0.07478503,-259.95384,62.676022)"
       style="fill:#000000" />
  </g>
</svg>
