<?xml version="1.0" encoding="UTF-8" standalone="no"?>
<svg
   xmlns:dc="http://purl.org/dc/elements/1.1/"
   xmlns:cc="http://creativecommons.org/ns#"
   xmlns:rdf="http://www.w3.org/1999/02/22-rdf-syntax-ns#"
   xmlns:svg="http://www.w3.org/2000/svg"
   xmlns="http://www.w3.org/2000/svg"
   xmlns:sodipodi="http://sodipodi.sourceforge.net/DTD/sodipodi-0.dtd"
   xmlns:inkscape="http://www.inkscape.org/namespaces/inkscape"
   width="1080"
   height="1080"
   viewBox="0 0 285.75001 285.75001"
   version="1.1"
   id="svg3993"
   inkscape:version="1.0.1 (3bc2e813f5, 2020-09-07)"
   sodipodi:docname="Twitter.svg">
  <defs
     id="defs3987" />
  <sodipodi:namedview
     id="base"
     pagecolor="#bababa"
     bordercolor="#666666"
     borderopacity="1.0"
     inkscape:pageopacity="0"
     inkscape:pageshadow="2"
     inkscape:zoom="0.021875"
     inkscape:cx="974.90509"
     inkscape:cy="-642.80979"
     inkscape:document-units="mm"
     inkscape:current-layer="layer1"
     inkscape:document-rotation="0"
     showgrid="false"
     units="px"
     inkscape:pagecheckerboard="false"
     showborder="true"
     inkscape:showpageshadow="false"
     borderlayer="true"
     inkscape:window-width="960"
     inkscape:window-height="1017"
     inkscape:window-x="952"
     inkscape:window-y="-8"
     inkscape:window-maximized="0" />
  <metadata
     id="metadata3990">
    <rdf:RDF>
      <cc:Work
         rdf:about="">
        <dc:format>image/svg+xml</dc:format>
        <dc:type
           rdf:resource="http://purl.org/dc/dcmitype/StillImage" />
        <dc:title></dc:title>
      </cc:Work>
    </rdf:RDF>
  </metadata>
  <g
     inkscape:label="Layer 1"
     inkscape:groupmode="layer"
     id="layer1">
    <g
       id="g4982"
       transform="matrix(0.07478503,0,0,0.07478503,-259.95384,62.676022)"
       style="fill:#000000" />
    <path
       id="circle3923"
       style="fill:#ffffff;fill-opacity:1;stroke-width:3.35886"
       d="M 142.84176,6.077165e-5 A 142.87496,142.87496 0 0 0 5.4e-5,142.87495 142.87496,142.87496 0 0 0 142.87506,285.74994 142.87496,142.87496 0 0 0 285.74995,142.87495 142.87496,142.87496 0 0 0 142.87506,6.077165e-5 a 142.87496,142.87496 0 0 0 -0.042,0 z M 169.28368,98.100961 h 2.0379 v 0.042 c 2.0179,0.025 3.9606,0.21519 5.5754,0.82629 1.699,0.7376 4.942,2.214199 7.2301,3.763999 l 4.2043,2.8771 4.5787,-1.4755 c 2.5828,-0.7384 5.9808,-2.0697 7.5026,-2.9547 1.4753,-0.7476 2.7246,-1.1738 2.7246,-0.9562 0,1.4767 -3.1721,6.4927 -5.828,9.2153 -3.542,3.9114 -2.5806,4.2102 4.6517,1.6267 4.3528,-1.4753 4.4259,-1.4753 3.5376,0 -0.7376,0.8856 -3.172,3.9099 -5.9786,6.641 -4.7979,4.7234 -5.0128,5.2412 -5.0128,9.1978 0,6.125 -2.8819,18.852 -5.7594,25.8201 -5.3849,13.0838 -16.8547,26.5896 -28.34682,33.3868 -16.1703,9.5501 -37.70341,11.9703 -55.83631,6.3468 -6.051696,-1.9197 -16.427395,-6.7125 -16.427395,-7.58 0,0 3.172,-0.7443 7.008601,-0.7443 8.003294,0 15.999794,-2.3617 22.813494,-6.3469 l 4.572,-2.7341 -5.3119,-1.7652 c -7.4892,-2.5829 -14.2121,-8.5229 -15.9177,-14.117 -0.7376,-1.8328 0,-1.9167 4.4302,-1.9167 l 4.9419,-0.091 -4.2064,-1.9944 c -4.9442,-2.5091 -9.438695,-6.7165 -11.653895,-11.0324 -1.6236,-3.1001 -3.6859,-10.9184 -3.025799,-11.5211 0,0 1.925,2e-4 3.989499,0.9605 5.905495,2.1398 6.638695,1.6221 3.245101,-1.9945 -6.348502,-6.5671 -8.346601,-16.267 -5.311902,-25.4696 l 1.397802,-4.1316 5.610894,5.6112 c 11.4986,11.2681 25.0375,17.9676 40.52111,19.9535 l 4.2818,0.7442 v -4.2051 c -0.7401,-10.9291 5.983,-20.9114 16.6,-24.785789 1.9937,-0.73681 4.57882,-1.10341 7.30772,-1.10341 z" />
  </g>
</svg>
