<?xml version="1.0" encoding="UTF-8" standalone="no"?>
<svg
   xmlns:dc="http://purl.org/dc/elements/1.1/"
   xmlns:cc="http://creativecommons.org/ns#"
   xmlns:rdf="http://www.w3.org/1999/02/22-rdf-syntax-ns#"
   xmlns:svg="http://www.w3.org/2000/svg"
   xmlns="http://www.w3.org/2000/svg"
   xmlns:sodipodi="http://sodipodi.sourceforge.net/DTD/sodipodi-0.dtd"
   xmlns:inkscape="http://www.inkscape.org/namespaces/inkscape"
   width="1080"
   height="1080"
   viewBox="0 0 285.75001 285.75001"
   version="1.1"
   id="svg3993"
   inkscape:version="1.0.1 (3bc2e813f5, 2020-09-07)"
   sodipodi:docname="Website.svg">
  <defs
     id="defs3987" />
  <sodipodi:namedview
     id="base"
     pagecolor="#bababa"
     bordercolor="#666666"
     borderopacity="1.0"
     inkscape:pageopacity="0"
     inkscape:pageshadow="2"
     inkscape:zoom="0.021875"
     inkscape:cx="974.90509"
     inkscape:cy="-642.80979"
     inkscape:document-units="mm"
     inkscape:current-layer="layer1"
     inkscape:document-rotation="0"
     showgrid="false"
     units="px"
     inkscape:pagecheckerboard="false"
     showborder="true"
     inkscape:showpageshadow="false"
     borderlayer="true"
     inkscape:window-width="960"
     inkscape:window-height="1017"
     inkscape:window-x="952"
     inkscape:window-y="-8"
     inkscape:window-maximized="0" />
  <metadata
     id="metadata3990">
    <rdf:RDF>
      <cc:Work
         rdf:about="">
        <dc:format>image/svg+xml</dc:format>
        <dc:type
           rdf:resource="http://purl.org/dc/dcmitype/StillImage" />
        <dc:title></dc:title>
      </cc:Work>
    </rdf:RDF>
  </metadata>
  <g
     inkscape:label="Layer 1"
     inkscape:groupmode="layer"
     id="layer1">
    <g
       id="g4982"
       transform="matrix(0.07478503,0,0,0.07478503,-259.95384,62.676022)"
       style="fill:#000000" />
    <path
       id="circle3927"
       style="fill:#ffffff;fill-opacity:1;stroke-width:3.35886"
       d="M 142.84175,5.7271652e-5 A 142.87496,142.87496 0 0 0 5.5e-5,142.87495 142.87496,142.87496 0 0 0 142.87505,285.74994 142.87496,142.87496 0 0 0 285.74994,142.87495 142.87496,142.87496 0 0 0 142.87505,5.7271652e-5 a 142.87496,142.87496 0 0 0 -0.042,0 z M 139.91115,76.750454 v 30.613596 c -8.0652,-0.1532 -15.6786,-1.1368 -22.7337,-2.5787 1.2139,-3.4072 2.0512,-7.430786 3.491,-10.313996 5.3362,-10.6652 12.2031,-16.2792 19.2604,-17.7209 z m 5.8413,0.084 c 7.0507,1.45251 13.9419,7.0579 19.2427,17.7079 1.5174,2.9144 2.35022,6.861096 3.48882,10.275196 -7.08622,1.4416 -14.65292,2.5787 -22.73152,2.5787 z m -20.8886,2.3751 0.042,0.025 h -0.089 c -3.4756,3.6033 -6.8913,7.4707 -9.4719,12.7065 -1.668,3.3916 -2.6559,7.84021 -3.9451,11.785306 -6.6298,-1.7448 -12.298295,-4.097106 -17.306695,-6.753606 8.218095,-8.733 18.883795,-14.422 30.752495,-17.76 z m 35.927,0 h 0.042 c 11.84432,3.3455 22.49892,8.9886 30.70822,17.6908 -5.0593,2.6555 -10.566,5.085696 -17.2446,6.831396 -1.3668,-3.968396 -2.3503,-8.400596 -4.0205,-11.815396 -2.6492,-5.2729 -5.98972,-9.1418 -9.47852,-12.7068 z m 34.08842,22.579496 c 8.4751,10.7063 13.9375,23.5624 14.6995,38.1155 h -28.9559 c -0.3031,-11.1834 -1.9715,-21.3267 -4.4724,-30.6739 7.0684,-1.8973 13.1556,-4.4777 18.6934,-7.4371 z m -104.010815,0.059 c 5.498,2.9596 11.693695,5.4612 18.746595,7.3593 -2.5761,9.3548 -4.4834,19.5176 -4.4834,30.7086 H 76.197755 c 0.6597,-14.5154 6.229,-27.343 14.6442,-38.0333 z m 79.513815,8.6354 c 2.4279,8.897 4.3218,18.6336 4.3218,29.4628 h -28.95612 v -26.6549 c 8.7255,-0.1532 16.9568,-1.2155 24.63432,-2.8079 z m -55.11422,0.1683 c 7.6642,1.5915 15.9156,2.7256 24.6254,2.7256 v 26.655 h -28.9428 c 0.30561,-10.7976 1.894,-20.5062 4.3174,-29.3806 z m 94.20442,35.1866 v 0.042 c -0.6606,14.5154 -6.2422,27.3473 -14.6597,38.0378 -5.5001,-2.8844 -11.6847,-5.3879 -18.742,-7.2858 2.5806,-9.3542 4.479,-19.5212 4.479,-30.713 z m -133.305715,0.084 h 28.918395 c 0.3056,11.176 1.9737,21.3272 4.4767,30.6654 -7.0729,1.8988 -13.157795,4.4777 -18.697795,7.4373 -8.4728,-10.6972 -13.9352,-23.5605 -14.6973,-38.1027 z m 34.797295,0 28.9471,0.025 v 26.6549 c -8.7164,0.1507 -16.9501,1.2088 -24.621,2.8037 -2.4278,-8.8938 -4.3261,-18.6482 -4.3261,-29.476 z m 34.7884,0 28.97812,0.025 c -0.3014,10.8033 -1.8983,20.5513 -4.3261,29.4282 -7.67982,-1.6686 -15.93332,-2.8079 -24.65202,-2.8079 z m -5.8457,32.5 0.042,30.5832 c -7.0618,-1.449 -13.9464,-7.0575 -19.2561,-17.7254 -1.5195,-2.9208 -2.3546,-6.8643 -3.4932,-10.2793 7.0773,-1.4408 14.6508,-2.5778 22.7138,-2.5785 z m 5.8368,0 h 0.025 c 8.0785,0.1532 15.6919,1.1369 22.74713,2.5785 -1.21401,3.415 -2.04903,7.4349 -3.49113,10.3184 -5.334,10.6678 -12.2252,16.2844 -19.2826,17.7253 z m -34.3697,3.6298 c 1.3623,3.9649 2.2771,8.4003 4.0204,11.8111 2.6404,5.1965 5.9742,9.1409 9.4652,12.7066 -11.8443,-3.3463 -22.5033,-8.9922 -30.712595,-17.6951 5.0527,-2.653 10.561795,-5.0778 17.226995,-6.8226 z m 62.85392,0 0.042,0.033 c 6.6232,1.6676 12.2894,4.0918 17.2978,6.6713 -8.2181,8.7413 -18.8794,14.4435 -30.75252,17.7814 3.48,-3.6042 6.82032,-7.4767 9.47412,-12.711 1.6725,-3.3916 2.6582,-7.8323 3.9452,-11.7764 z" />
  </g>
</svg>
